<?xml version="1.0" standalone="no"?>
<!DOCTYPE svg PUBLIC "-//W3C//DTD SVG 20010904//EN"
 "http://www.w3.org/TR/2001/REC-SVG-20010904/DTD/svg10.dtd">
<svg version="1.0" xmlns="http://www.w3.org/2000/svg"
 width="132.000000pt" height="119.000000pt" viewBox="0 0 132.000000 119.000000"
 preserveAspectRatio="xMidYMid meet">

<g transform="translate(0.000000,119.000000) scale(0.100000,-0.100000)"
fill="#000000" stroke="none">
<path d="M561 1159 c-58 -11 -169 -48 -176 -58 -7 -12 25 -37 60 -48 44 -14
44 -40 1 -58 -20 -9 -36 -21 -36 -29 0 -8 -16 -28 -37 -46 -32 -29 -41 -32
-80 -27 -29 3 -54 14 -71 30 l-27 26 -37 -58 c-57 -87 -79 -160 -85 -278 -5
-91 -3 -111 20 -185 62 -196 225 -353 422 -403 76 -19 214 -19 289 0 169 44
306 158 385 322 80 164 77 353 -8 508 -50 92 -71 118 -127 167 -133 114 -331
169 -493 137z m59 -49 c0 -5 -5 -10 -11 -10 -5 0 -7 5 -4 10 3 6 8 10 11 10 2
0 4 -4 4 -10z m-90 -20 c0 -5 -5 -10 -11 -10 -5 0 -7 5 -4 10 3 6 8 10 11 10
2 0 4 -4 4 -10z m243 -43 c-7 -4 -13 -16 -14 -25 0 -12 -3 -11 -9 6 -5 12 -14
22 -20 22 -5 0 -2 8 8 18 15 15 19 15 33 2 12 -12 13 -17 2 -23z m217 -27 c0
-5 -4 -10 -10 -10 -5 0 -10 5 -10 10 0 6 5 10 10 10 6 0 10 -4 10 -10z m-420
-20 c0 -5 -4 -10 -10 -10 -5 0 -10 5 -10 10 0 6 5 10 10 10 6 0 10 -4 10 -10z
m374 -21 c-3 -5 -10 -7 -15 -3 -5 3 -7 10 -3 15 3 5 10 7 15 3 5 -3 7 -10 3
-15z m148 -16 c10 -9 18 -21 18 -26 0 -6 -9 -2 -20 8 -11 10 -20 13 -20 7 0
-7 4 -12 10 -12 5 0 9 -11 8 -24 -1 -15 -7 -22 -15 -19 -12 5 -15 1 -17 -29
-2 -26 -36 -38 -36 -12 0 8 -5 12 -11 8 -6 -3 -15 0 -20 7 -39 63 48 142 103
92z m-422 -30 c38 -26 49 -45 50 -80 0 -17 5 -35 11 -38 36 -23 29 -104 -11
-140 -28 -25 -38 -10 -12 18 31 34 37 72 16 105 -10 15 -17 32 -16 38 8 40
-55 104 -103 104 -16 0 -13 -4 12 -20 37 -22 67 -63 60 -82 -2 -7 4 -24 14
-37 22 -27 24 -50 7 -86 -22 -48 -89 -44 -96 6 -2 13 -10 31 -17 39 -7 8 -15
28 -19 43 -8 32 -48 53 -74 37 -11 -6 -12 -10 -4 -10 25 0 62 -48 62 -79 0
-36 17 -50 23 -19 5 19 5 19 4 -3 -2 -36 18 -57 67 -70 22 -6 47 -16 55 -22 8
-7 37 -16 65 -22 41 -8 55 -16 73 -44 30 -44 29 -75 -3 -100 -42 -33 -89 -45
-120 -29 -15 7 -29 19 -32 26 -2 8 6 6 26 -5 26 -15 34 -15 73 -3 l44 15 -37
3 c-28 2 -43 11 -58 33 -12 16 -29 29 -39 29 -9 0 -30 14 -46 30 -17 18 -39
30 -54 30 -14 0 -45 11 -69 25 -24 14 -42 19 -40 12 6 -17 79 -57 105 -57 12
0 35 -11 51 -25 17 -14 38 -25 48 -25 17 -1 17 -2 2 -10 -20 -12 -45 -3 -59
21 -5 11 -17 19 -27 19 -15 0 -15 -2 -2 -11 11 -8 4 -9 -27 -7 -24 2 -43 0
-43 -4 0 -4 -12 -3 -27 3 -20 7 -38 6 -74 -7 -45 -16 -49 -16 -73 0 -14 9 -26
21 -26 26 0 14 11 12 31 -6 12 -11 27 -14 45 -10 25 7 26 8 9 26 -21 23 -14
25 18 8 12 -7 32 -11 44 -9 11 1 24 -3 28 -8 3 -6 11 -11 16 -11 6 0 7 5 4 10
-9 14 8 13 23 -2 8 -8 12 -8 12 -1 0 13 -28 25 -40 18 -4 -3 -11 2 -14 11 -4
11 -14 13 -40 8 -29 -5 -39 -2 -60 20 -29 28 -34 67 -11 86 17 14 19 7 5 -20
-7 -13 -4 -24 11 -44 25 -32 64 -36 56 -6 -3 10 0 21 6 23 7 2 5 12 -6 27 -19
27 -22 65 -7 75 6 4 10 -7 10 -26 0 -40 65 -109 103 -109 40 0 75 -17 82 -39
4 -14 15 -21 31 -21 24 0 58 -26 66 -50 2 -7 23 -14 47 -15 l43 -2 -6 36 c-5
35 -47 83 -54 63 -2 -6 -14 -5 -30 4 -15 8 -34 14 -43 14 -9 0 -22 6 -28 14
-6 7 -25 16 -42 20 -44 9 -109 76 -109 113 0 35 -16 53 -47 53 -25 0 -30 19
-11 38 29 29 108 2 108 -37 0 -9 6 -26 14 -37 8 -11 16 -31 18 -44 2 -20 9
-25 33 -25 41 0 56 41 33 88 -9 18 -19 45 -22 60 -4 16 -20 36 -39 47 -47 29
-127 25 -127 -6 0 -8 -10 -14 -23 -14 -27 0 -65 -25 -54 -36 4 -4 13 -2 19 4
20 20 29 14 17 -10 -7 -13 -15 -30 -19 -38 -4 -8 -16 -16 -28 -18 -12 -2 -24
-12 -27 -22 -3 -10 -15 -22 -26 -25 -30 -10 -40 -38 -28 -74 9 -27 8 -35 -6
-51 -10 -11 -22 -17 -26 -14 -12 7 -11 51 1 59 6 3 10 17 10 30 0 28 78 115
103 115 22 0 32 20 16 31 -10 7 -25 -2 -51 -32 -21 -23 -38 -35 -38 -28 0 23
81 103 135 134 75 44 165 56 205 28z m62 0 c10 -9 17 -28 17 -42 -2 -24 -2
-25 -6 -3 -3 13 -19 32 -36 43 -24 14 -27 19 -13 19 11 0 28 -7 38 -17z m78
-8 c14 -8 41 -21 62 -30 37 -17 128 -121 128 -147 0 -8 5 -19 10 -24 7 -7 8
-28 4 -53 -5 -32 -13 -45 -30 -52 -13 -4 -24 -12 -24 -17 0 -14 -42 -29 -75
-26 -42 3 -42 3 -25 14 8 6 26 8 40 5 14 -3 32 -1 40 5 11 7 7 10 -19 10 -47
0 -28 18 24 22 42 3 54 21 40 56 -5 14 -9 10 -20 -15 -10 -23 -21 -33 -35 -33
-12 0 -18 5 -15 10 3 6 12 10 19 10 17 0 27 59 14 83 -5 9 -15 17 -23 17 -8 0
-25 11 -39 25 -35 35 -8 32 42 -5 24 -17 42 -38 42 -49 0 -10 7 -21 15 -25 17
-6 21 9 5 19 -5 3 -10 15 -10 26 0 11 -7 22 -15 25 -8 4 -15 11 -15 18 0 6
-16 28 -36 49 -34 34 -41 37 -85 35 -30 -2 -49 -8 -49 -15 0 -17 21 -28 29
-15 12 20 63 18 85 -4 25 -25 18 -40 -7 -16 -27 25 -44 27 -71 7 -13 -10 -24
-11 -37 -4 -23 12 -25 -3 -4 -21 9 -7 15 -29 15 -52 0 -36 2 -38 20 -28 23 12
54 0 64 -26 9 -23 -19 -62 -50 -70 -37 -9 -42 4 -6 17 35 12 48 35 31 55 -16
20 -47 8 -91 -34 -45 -43 -62 -37 -18 6 24 25 30 39 30 75 0 27 -6 49 -15 57
-21 17 -19 30 10 65 19 23 26 27 34 16 6 -10 10 -10 16 -1 9 14 -11 30 -37 30
-9 0 -20 5 -23 10 -9 15 26 12 55 -5z m-199 -56 c19 -18 26 -29 17 -26 -13 5
-9 -5 13 -35 30 -43 35 -78 10 -86 -9 -3 -11 1 -7 14 4 14 -1 22 -17 29 -12 6
-24 19 -26 30 -3 17 -1 17 17 -5 11 -14 23 -22 26 -19 4 3 -5 18 -18 32 -14
15 -31 39 -38 54 -12 24 -19 28 -52 25 -25 -2 -36 1 -31 7 14 23 71 12 106
-20z m-401 -9 c0 -5 -2 -10 -4 -10 -3 0 -8 5 -11 10 -3 6 -1 10 4 10 6 0 11
-4 11 -10z m634 -45 c-10 -8 -26 -14 -34 -14 -11 0 -10 3 4 14 11 8 27 15 35
15 11 0 10 -4 -5 -15z m-630 -62 c-13 -13 -19 -14 -22 -5 -2 6 -11 12 -20 12
-13 0 -12 5 7 19 21 16 27 17 39 5 11 -12 11 -17 -4 -31z m286 17 c6 -11 8
-25 5 -30 -10 -16 36 -68 79 -91 l41 -21 -35 6 c-21 4 -50 21 -73 44 -31 30
-37 42 -33 64 7 35 -10 45 -35 22 -16 -14 -19 -14 -19 -2 0 21 10 28 36 28 13
0 28 -9 34 -20z m378 -7 c2 -17 10 -23 27 -23 41 0 41 -34 -1 -84 -40 -49 -62
-62 -76 -48 -6 6 1 12 16 16 14 3 26 10 26 15 0 5 11 19 25 32 32 31 33 60 3
56 -15 -1 -26 6 -36 26 -15 30 -27 34 -36 11 -3 -8 -11 -12 -16 -9 -19 12 11
36 39 33 18 -2 27 -10 29 -25z m271 -19 c-9 -11 -15 -11 -25 -3 -10 8 -11 14
-1 24 17 19 42 -2 26 -21z m-707 -43 c16 -38 17 -47 5 -58 -12 -12 -16 -12
-27 1 -10 13 -10 16 3 16 9 0 14 6 12 13 -26 72 -25 71 -39 51 -20 -26 -29
-13 -14 18 16 33 33 22 60 -41z m-272 9 c0 -5 -4 -10 -10 -10 -5 0 -10 5 -10
10 0 6 5 10 10 10 6 0 10 -4 10 -10z m195 -10 c3 -5 -1 -10 -9 -10 -12 0 -10
-9 9 -42 23 -41 33 -88 18 -88 -3 0 -14 7 -24 16 -23 21 -39 10 -39 -27 0 -39
38 -56 92 -39 64 19 190 21 217 3 13 -8 35 -13 48 -10 17 3 38 -4 61 -19 27
-18 30 -24 15 -24 -10 0 -28 6 -39 14 -10 8 -29 12 -42 9 -13 -3 -33 2 -48 12
-27 17 -100 17 -237 -1 -57 -7 -87 12 -87 56 0 37 34 68 55 50 20 -17 19 -8
-6 45 -20 41 -19 65 1 65 5 0 12 -4 15 -10z m464 -16 c-15 -18 -69 -48 -75
-41 -5 5 19 26 50 43 30 17 40 16 25 -2z m-595 -25 c-3 -5 -10 -7 -15 -3 -5 3
-7 10 -3 15 3 5 10 7 15 3 5 -3 7 -10 3 -15z m856 11 c0 -5 -4 -10 -10 -10 -5
0 -10 5 -10 10 0 6 5 10 10 10 6 0 10 -4 10 -10z m70 -20 c0 -5 -4 -10 -10
-10 -5 0 -10 5 -10 10 0 6 5 10 10 10 6 0 10 -4 10 -10z m-488 -40 c8 -12 28
-23 51 -27 22 -3 44 -14 52 -26 8 -12 25 -27 37 -34 l23 -12 -22 -1 c-13 0
-29 10 -39 25 -11 17 -29 27 -55 31 -28 5 -46 15 -60 35 -11 16 -16 29 -10 29
6 0 16 -9 23 -20z m-456 -35 c17 -43 17 -47 -1 -71 -13 -17 -14 -16 -9 21 l4
40 -19 -50 c-24 -61 -27 -117 -7 -109 7 3 19 17 25 32 l12 27 -21 -25 c-11
-14 -20 -20 -20 -15 0 6 13 26 29 45 l30 35 -9 -40 c-5 -22 -20 -50 -34 -62
-17 -15 -26 -32 -26 -53 0 -33 -15 -41 -23 -12 -2 9 -8 26 -12 37 -5 16 -5 17
4 5 8 -12 11 -12 11 -1 0 7 -11 26 -25 43 -14 16 -25 35 -25 41 0 13 39 -32
40 -45 0 -5 5 -8 10 -8 16 0 12 22 -9 44 -14 15 -18 30 -14 49 7 34 22 18 23
-23 1 -22 2 -23 11 -7 12 20 2 80 -12 71 -16 -10 -10 13 12 40 27 34 37 33 55
-9z m753 -1 c-27 -26 -99 -45 -99 -25 0 6 13 11 29 11 17 0 42 10 58 24 36 31
45 23 12 -10z m-849 16 c0 -5 -2 -10 -4 -10 -3 0 -8 5 -11 10 -3 6 -1 10 4 10
6 0 11 -4 11 -10z m966 -32 c-18 -25 -21 -42 -6 -33 16 10 12 -11 -5 -25 -17
-14 -21 -35 -5 -25 16 10 12 -11 -5 -25 -20 -17 -19 -31 3 -23 13 5 13 1 -5
-17 l-22 -24 30 -18 c28 -17 30 -21 27 -76 -3 -56 -3 -57 -35 -60 -29 -3 -33
0 -33 22 0 14 -4 27 -9 31 -6 3 -9 -7 -8 -22 2 -22 -3 -29 -20 -31 -13 -2 -23
1 -23 7 0 6 10 11 21 11 20 0 21 1 5 25 -15 23 -15 25 0 25 16 0 16 2 0 19
-17 19 -17 19 3 14 14 -4 21 -1 21 10 0 8 -8 14 -17 13 -10 0 -18 6 -19 14 -2
28 -16 70 -24 70 -8 0 -25 -49 -21 -64 1 -4 -4 -14 -10 -22 -9 -11 -8 -14 1
-14 9 0 8 -6 -4 -19 -13 -15 -14 -20 -4 -24 10 -3 8 -10 -7 -27 l-20 -23 28 5
c19 4 27 1 27 -9 0 -12 -46 -14 -298 -11 -291 3 -298 3 -275 21 27 22 30 53 6
79 -19 21 -44 23 -61 6 -17 -17 -15 -68 5 -90 15 -17 14 -18 -25 -18 -36 0
-42 3 -42 21 0 11 9 32 20 46 24 31 25 51 4 81 -19 28 -49 28 -68 0 -22 -30
-20 -61 4 -83 20 -18 28 -65 11 -65 -21 0 -51 59 -51 100 0 34 6 46 30 66 33
28 52 82 44 124 -4 17 -1 31 7 35 8 5 10 4 5 -3 -4 -7 -3 -12 3 -12 5 0 13 -9
16 -21 4 -11 19 -28 33 -37 15 -9 28 -28 30 -41 1 -14 8 -31 15 -39 17 -21 87
-52 119 -52 25 0 27 -2 18 -24 -5 -13 -6 -27 -3 -30 18 -17 50 1 112 65 60 61
73 70 93 63 43 -16 88 -8 131 22 23 16 43 39 45 51 2 15 13 22 41 27 21 3 49
17 64 30 19 18 27 21 31 10 3 -8 12 -11 22 -7 14 5 16 3 10 -13 -4 -13 2 -9
19 10 14 16 25 34 26 40 0 7 3 6 6 -1 2 -7 -3 -23 -11 -35z m104 32 c0 -5 -4
-10 -10 -10 -5 0 -10 5 -10 10 0 6 5 10 10 10 6 0 10 -4 10 -10z m-376 -49
c-6 -6 -24 19 -24 34 1 6 7 1 15 -9 8 -11 12 -22 9 -25z m380 -18 c-3 9 -1 17
4 17 6 0 13 8 15 18 3 9 5 1 6 -19 1 -30 -24 -137 -35 -148 -5 -6 -34 20 -34
30 0 5 8 9 17 9 14 0 12 5 -8 26 -17 18 -19 23 -6 18 23 -9 21 5 -5 33 -17 19
-19 23 -5 17 21 -8 21 0 0 34 -11 18 -4 13 20 -13 20 -22 34 -32 31 -22z
m-1086 6 c-3 -8 -7 -3 -11 10 -4 17 -3 21 5 13 5 -5 8 -16 6 -23z m486 -54 c7
-20 -7 -56 -32 -78 -21 -20 -82 -33 -107 -24 -8 4 -18 6 -20 7 -3 0 -12 5 -21
12 -62 51 -63 61 -10 84 45 19 182 19 190 -1z m33 -26 c-5 -19 -4 -20 12 -5
10 9 21 16 25 16 4 0 -25 -36 -64 -80 -72 -79 -104 -96 -75 -39 17 32 31 40
21 12 -4 -10 11 2 33 27 21 25 37 49 34 53 -6 10 4 37 13 37 3 0 4 -9 1 -21z
m-359 -81 c15 -15 16 -55 0 -64 -8 -5 -9 -2 -4 11 3 10 4 26 0 37 -4 15 -9 17
-20 7 -12 -10 -13 -9 -8 5 7 19 16 20 32 4z m905 -5 c-4 -10 -16 -34 -27 -53
l-21 -35 -3 35 c-3 26 2 39 18 52 28 23 41 23 33 1z m-793 -69 c0 -12 -5 -26
-11 -30 -7 -4 -9 0 -5 12 3 11 1 26 -4 34 -9 13 -11 13 -20 0 -5 -8 -10 -10
-10 -4 0 5 5 15 12 22 16 16 38 -3 38 -34z m488 -81 c168 -13 73 -23 -213 -23
-176 0 -295 4 -295 9 0 5 12 12 28 14 46 7 392 7 480 0z m182 3 c0 -3 -4 -8
-10 -11 -5 -3 -10 -1 -10 4 0 6 5 11 10 11 6 0 10 -2 10 -4z m-710 -20 c0 -12
-6 -13 -32 -4 -46 15 -47 18 -5 18 26 0 37 -4 37 -14z m676 5 c-10 -16 -46
-20 -46 -5 0 8 10 14 26 14 14 0 23 -4 20 -9z m-66 -31 c0 -6 -97 -11 -267
-12 -300 -1 -304 -1 -317 12 -7 7 95 10 287 10 191 0 297 -4 297 -10z m-60
-27 c-8 -3 -28 -11 -45 -18 -83 -35 -114 -41 -195 -40 -67 2 -100 8 -155 30
-38 15 -72 29 -74 31 -2 2 106 4 240 3 134 0 237 -3 229 -6z m-470 -23 c8 -5
11 -10 5 -10 -5 0 -17 5 -25 10 -8 5 -10 10 -5 10 6 0 17 -5 25 -10z m80 -32
c10 -6 7 -7 -10 -2 -14 3 -32 11 -40 16 -10 6 -7 7 10 2 14 -3 32 -11 40 -16z
m350 8 c-14 -7 -36 -16 -50 -20 -14 -3 -7 3 15 13 45 22 73 27 35 7z m-183
-22 c-3 -3 -12 -4 -19 -1 -8 3 -5 6 6 6 11 1 17 -2 13 -5z m-77 -14 c8 -5 11
-10 5 -10 -5 0 -17 5 -25 10 -8 5 -10 10 -5 10 6 0 17 -5 25 -10z"/>
<path d="M1026 913 c-6 -14 -5 -15 5 -6 7 7 10 15 7 18 -3 3 -9 -2 -12 -12z"/>
<path d="M296 635 c-3 -8 -1 -15 4 -15 6 0 10 7 10 15 0 8 -2 15 -4 15 -2 0
-6 -7 -10 -15z"/>
<path d="M176 568 c-7 -29 -8 -53 -1 -46 11 10 23 68 15 68 -4 0 -10 -10 -14
-22z"/>
<path d="M1014 505 c5 -15 4 -16 -8 -6 -20 17 -71 10 -71 -9 0 -8 9 -15 20
-15 11 0 26 -4 33 -8 15 -10 42 9 42 29 0 7 -5 16 -12 20 -8 5 -9 2 -4 -11z"/>
<path d="M410 465 c-13 -7 -24 -19 -26 -27 -1 -12 11 -10 64 9 35 13 70 22 76
20 6 -2 -20 -14 -59 -27 l-70 -23 30 -12 c42 -17 93 -28 77 -17 -11 7 -10 10
3 16 26 9 42 7 25 -4 -10 -6 -11 -10 -2 -10 19 0 54 40 48 55 -3 8 0 16 7 19
7 3 1 3 -12 0 -13 -3 -21 -2 -18 2 8 14 -117 13 -143 -1z m30 -10 c-46 -18
-64 -17 -25 0 17 8 37 14 45 14 8 0 -1 -7 -20 -14z m113 -1 c23 -8 9 -46 -14
-39 -10 3 -28 1 -39 -5 -12 -7 -35 -8 -53 -4 -32 7 -31 7 28 29 33 13 61 23
62 24 1 0 8 -2 16 -5z"/>
<path d="M490 430 c-25 -11 -38 -19 -30 -19 8 0 33 8 55 18 51 25 34 25 -25 1z"/>
<path d="M473 134 c8 -9 356 -9 364 0 3 3 -78 6 -182 6 -104 0 -185 -3 -182
-6z"/>
<path d="M585 110 c3 -5 42 -10 86 -10 46 0 79 4 79 10 0 6 -35 10 -86 10 -54
0 -83 -4 -79 -10z"/>
<path d="M250 1097 c-27 -20 -50 -60 -50 -84 0 -22 3 -23 89 -23 115 0 122 3
110 43 -13 46 -52 77 -97 77 -20 0 -44 -6 -52 -13z m111 -26 c16 -16 29 -39
29 -50 0 -19 -6 -21 -57 -20 -59 1 -58 3 10 14 21 3 35 10 31 16 -3 6 -10 6
-17 1 -7 -6 -24 -10 -40 -10 -22 0 -25 3 -16 14 9 11 8 14 -6 14 -14 0 -15 3
-5 15 10 12 10 15 0 15 -6 0 -14 -10 -18 -22 -5 -21 -6 -21 -12 -3 -6 18 -9
17 -23 -10 -9 -17 -16 -24 -17 -17 0 8 13 27 29 43 38 38 74 38 112 0z"/>
<path d="M153 1038 c-38 -19 -26 -47 27 -63 14 -4 31 -17 39 -27 23 -33 77
-51 116 -38 29 9 65 46 65 65 0 3 -38 3 -85 -1 -69 -5 -94 -3 -130 11 -47 18
-55 38 -17 43 12 2 22 8 22 13 0 11 -9 11 -37 -3z m216 -85 c-8 -10 -18 -21
-24 -25 -14 -11 -73 -10 -79 1 -3 4 5 6 17 4 28 -6 80 14 72 27 -3 5 1 10 11
10 14 0 15 -2 3 -17z m-66 0 c-7 -2 -19 -2 -25 0 -7 3 -2 5 12 5 14 0 19 -2
13 -5z"/>
<path d="M420 1020 c0 -23 4 -24 32 -9 17 9 18 13 7 20 -23 15 -39 10 -39 -11z"/>
</g>
</svg>
